<!DOCTYPE svg PUBLIC "-//W3C//DTD SVG 1.1//EN" "http://www.w3.org/Graphics/SVG/1.1/DTD/svg11.dtd">
<!-- Uploaded to: SVG Repo, www.svgrepo.com, Transformed by: SVG Repo Mixer Tools -->
<svg height="800px" width="800px" version="1.1" id="Layer_1" xmlns="http://www.w3.org/2000/svg" xmlns:xlink="http://www.w3.org/1999/xlink" viewBox="0 0 512 512" xml:space="preserve" fill="#ffffff" stroke="#ffffff">
<g id="SVGRepo_bgCarrier" stroke-width="0"/>
<g id="SVGRepo_tracerCarrier" stroke-linecap="round" stroke-linejoin="round"/>
<g id="SVGRepo_iconCarrier"> <path style="fill:#3584e4;" d="M256,0C114.616,0,0,114.616,0,256s114.616,256,256,256s256-114.616,256-256S397.384,0,256,0z"/> <path d="M345.368,364.2v-25.184c-17.776-0.8-35.008-5.568-45.088-11.4l7.968-31.032c11.144,6.088,26.776,11.664,44.032,11.664 c15.12,0,25.464-5.832,25.464-16.432c0-10.088-8.488-16.456-28.12-23.088c-28.376-9.544-47.744-22.808-47.744-48.528 c0-23.344,16.456-41.632,44.832-47.208v-25.2h25.976v23.344c17.776,0.8,29.712,4.488,38.464,8.744l-7.688,29.976 c-6.888-2.912-19.088-9.024-38.2-9.024c-17.232,0-22.808,7.432-22.808,14.856c0,8.744,9.288,14.32,31.832,22.808 c31.552,11.144,44.288,25.72,44.288,49.608c0,23.6-16.712,43.752-47.208,49.064v27.04h-26V364.2z"/> <path style="fill:#FFFFFF;" d="M248.936,346.2c-10.152,5.664-27.464,11.336-46.56,11.336c-29.256,0-56.104-11.944-72.824-34.024 c-8.072-10.152-14.024-22.976-16.72-38.8H93.424v-21.2h16.408c0-1.488,0-3.28,0-5.08c0-2.976,0.304-5.952,0.304-8.952h-16.72 v-21.184h20c3.872-16.128,11.048-29.848,20.592-40.896c17.024-19.104,40.896-30.44,68.952-30.44c18.208,0,34.024,4.176,44.768,8.952 l-8.36,34.024c-7.744-3.28-19.976-7.176-33.128-7.176c-14.312,0-27.464,4.792-36.696,16.128c-4.176,4.768-7.464,11.64-9.56,19.408 h74.328v21.184h-78.816c-0.288,3-0.288,6.28-0.288,9.256c0,1.792,0,2.976,0,4.768h79.104v21.2h-74.92 c2.08,8.952,5.36,15.824,9.848,20.896c9.544,10.744,23.584,15.208,38.512,15.208c13.72,0,27.744-4.464,34.024-7.744L248.936,346.2z"/> </g>
</svg>